<?xml version="1.0" standalone="no"?>
<!DOCTYPE svg PUBLIC "-//W3C//DTD SVG 20010904//EN"
 "http://www.w3.org/TR/2001/REC-SVG-20010904/DTD/svg10.dtd">
<svg version="1.0" xmlns="http://www.w3.org/2000/svg"
 width="1970.000000pt" height="358.000000pt" viewBox="0 0 1970.000000 358.000000"
 preserveAspectRatio="xMidYMid meet">
<metadata>
Created by potrace 1.16, written by Peter Selinger 2001-2019
</metadata>
<g transform="translate(0.000000,358.000000) scale(0.100000,-0.100000)"
fill="#000000" stroke="none">
<path d="M0 1790 l0 -1790 9850 0 9850 0 0 1790 0 1790 -9850 0 -9850 0 0
-1790z m4695 1473 c-10 -16 -30 -44 -45 -63 -60 -78 -80 -257 -39 -365 11 -30
24 -55 29 -55 4 0 20 -30 36 -67 15 -38 34 -75 41 -84 20 -24 15 -80 -11 -112
-17 -21 -41 -33 -97 -47 -135 -34 -230 -69 -265 -95 -70 -54 -121 -173 -112
-265 3 -25 28 -97 56 -160 58 -133 85 -210 103 -296 11 -56 11 -64 -8 -100
-24 -47 -65 -61 -195 -69 l-89 -4 -47 35 c-26 19 -56 41 -67 49 -10 8 -23 15
-27 15 -5 0 23 29 60 65 68 64 69 66 88 147 19 87 24 232 14 460 l-5 117 38
39 c21 22 51 46 65 53 15 7 52 30 82 50 30 20 74 49 98 64 81 53 92 68 91 127
-1 76 -32 251 -46 255 -18 6 -2398 -2379 -2382 -2387 23 -13 203 -40 262 -40
l55 0 42 57 c68 95 122 186 131 219 5 17 27 50 49 74 l40 43 112 -7 c298 -17
390 -18 466 -6 l77 12 71 73 71 73 17 -29 c9 -16 33 -49 51 -74 40 -51 42 -73
21 -183 -20 -105 -47 -132 -133 -132 -36 0 -85 6 -111 14 -26 8 -81 25 -122
37 -41 12 -82 27 -90 34 -23 19 -131 45 -186 45 -74 0 -145 -22 -193 -60 -54
-44 -79 -85 -101 -168 -47 -177 -62 -217 -88 -239 -15 -13 -39 -23 -53 -23
-29 0 -166 59 -211 92 -65 46 -207 61 -320 34 -55 -13 -90 -33 -152 -83 -16
-13 -30 -22 -33 -20 -3 4 34 106 61 167 15 35 55 93 69 103 7 4 37 5 67 2 l55
-6 622 623 c342 343 628 630 636 638 9 8 163 162 345 343 181 180 338 337 350
350 11 12 27 27 34 33 7 6 25 24 39 40 15 16 117 119 228 229 l201 200 0 55
c0 30 4 60 8 66 12 17 115 84 132 85 8 0 38 11 65 24 64 31 71 31 50 -2z
m12393 -148 c24 -25 40 -45 37 -45 -6 0 5 -14 35 -48 9 -9 36 -42 60 -72 25
-30 52 -60 60 -67 13 -10 12 -17 -6 -55 -11 -23 -29 -62 -40 -85 -20 -43 -40
-53 -105 -53 -15 0 -39 -5 -52 -11 -23 -10 -30 -6 -97 61 l-72 72 26 71 c73
207 99 277 105 277 3 0 25 -20 49 -45z m-1726 21 c18 -8 87 -31 153 -52 66
-20 132 -43 147 -50 14 -8 33 -14 42 -14 22 0 96 -31 96 -40 0 -6 -26 -15
-167 -52 -24 -6 -43 -14 -43 -18 0 -5 164 -167 388 -383 56 -53 102 -99 102
-102 0 -6 1279 -1279 1289 -1283 4 -1 13 28 20 65 8 38 22 111 33 163 24 122
53 268 78 398 10 56 24 119 29 140 5 20 12 60 16 87 3 28 12 75 20 105 8 30
28 132 45 225 51 282 58 309 87 322 24 12 25 11 19 -15 -3 -15 -11 -54 -17
-87 -6 -33 -17 -85 -25 -116 -8 -30 -14 -69 -14 -85 0 -16 -9 -60 -20 -99 -11
-38 -20 -84 -20 -101 0 -17 -4 -44 -9 -60 -5 -16 -19 -85 -31 -154 -12 -69
-26 -138 -30 -155 -5 -16 -14 -61 -20 -100 -6 -38 -16 -88 -22 -110 -11 -44
-36 -172 -68 -359 l-21 -120 205 -205 c113 -114 206 -212 206 -218 0 -7 -8
-17 -18 -22 -16 -8 -50 21 -228 195 l-209 205 -50 -6 c-27 -4 -108 -18 -180
-32 -71 -14 -152 -29 -180 -34 -80 -13 -204 -37 -280 -54 -83 -18 -222 -45
-485 -94 -63 -12 -144 -28 -180 -36 -66 -15 -185 -35 -207 -35 -19 0 -16 28 5
38 9 5 71 19 137 31 66 12 149 28 185 36 36 8 96 19 134 25 38 6 72 13 76 15
3 2 48 11 100 20 52 9 109 20 125 25 17 4 82 18 145 29 233 42 585 114 592
120 4 4 -279 292 -630 641 -350 349 -748 747 -883 885 l-246 250 -20 -45 c-11
-25 -23 -61 -27 -81 -4 -21 -14 -52 -23 -70 l-17 -34 -12 45 c-7 25 -34 106
-59 180 -26 74 -55 162 -65 195 -10 33 -21 68 -25 78 -9 21 12 23 57 3z
m-5426 -202 c32 -5 78 -1 135 10 115 22 202 20 279 -4 77 -25 83 -25 162 0
l63 19 -37 -34 c-50 -47 -91 -55 -232 -49 -107 5 -128 3 -181 -16 -141 -51
-182 -61 -222 -58 l-43 3 -2 -120 c-4 -179 0 -268 22 -510 33 -355 67 -537
148 -792 l30 -93 -219 0 c-121 0 -219 3 -219 8 0 4 18 77 40 162 21 85 50 216
64 290 31 167 93 591 100 685 6 69 6 69 -30 -60 -47 -173 -135 -434 -183 -543
-49 -110 -133 -263 -228 -414 l-74 -118 -225 0 c-123 0 -224 3 -224 8 0 4 17
17 38 29 135 77 354 275 483 435 161 201 331 486 413 694 l36 91 0 210 c0 115
3 213 7 216 3 4 16 -4 28 -17 15 -16 39 -27 71 -32z m-3061 -99 c66 -8 127
-15 135 -15 10 0 35 -50 74 -151 56 -139 61 -148 73 -127 10 18 12 19 13 6 0
-10 5 -18 11 -18 6 0 8 -9 4 -20 -8 -24 7 -26 25 -5 7 9 15 13 17 11 3 -3 31
7 63 20 l57 25 64 -45 c35 -26 103 -74 150 -109 47 -34 123 -89 169 -122 79
-56 82 -59 57 -66 -24 -6 -275 -25 -304 -23 -14 2 -48 -175 -36 -186 4 -4 45
-22 91 -40 67 -26 82 -36 82 -54 0 -11 9 -109 20 -216 11 -107 20 -204 20
-216 0 -25 -158 -196 -239 -258 -55 -42 -150 -96 -171 -96 -5 0 -10 8 -10 17
0 23 -29 53 -52 53 -27 0 -24 -54 4 -74 12 -9 18 -16 13 -16 -6 0 -20 -3 -32
-6 l-23 -6 0 220 c0 188 -2 222 -15 230 -14 7 -14 12 0 45 8 20 15 44 15 53 0
33 -25 5 -50 -56 -25 -61 -29 -65 -73 -79 -26 -8 -47 -18 -47 -23 0 -16 -93
-248 -100 -248 -4 0 -87 81 -186 180 -98 99 -183 180 -189 180 -6 0 -51 -25
-99 -56 -48 -30 -89 -54 -91 -52 -1 2 -24 41 -49 87 -58 105 -127 276 -163
404 -15 53 -31 97 -35 97 -35 0 79 -333 178 -519 28 -53 41 -88 35 -95 -5 -6
-26 -112 -46 -236 -21 -124 -43 -229 -48 -235 -6 -6 -8 3 -4 28 7 45 -7 41
-28 -9 -24 -57 -38 -43 -32 33 3 38 8 79 12 93 l7 25 -21 -25 c-12 -14 -30
-41 -40 -60 l-19 -34 -32 64 c-46 91 -68 160 -82 256 -12 86 -28 113 -28 49 0
-57 29 -185 59 -255 20 -48 26 -77 23 -112 -2 -27 -8 -48 -12 -48 -4 0 -14 24
-21 53 -6 28 -20 70 -30 92 l-18 40 0 -110 -1 -110 -22 33 c-25 34 -90 72
-126 72 -30 0 -28 -6 14 -52 57 -64 85 -138 68 -182 -8 -22 -24 -20 -24 2 0
16 -65 162 -72 162 -2 0 -3 -34 -3 -75 0 -84 -13 -97 -34 -33 -8 25 -16 37
-19 28 -3 -8 -9 -26 -14 -39 l-9 -24 -34 33 c-36 34 -43 34 -25 -1 6 -10 7
-19 3 -19 -8 0 -185 57 -219 70 -20 8 -20 12 53 470 l73 463 116 123 115 123
67 -33 c81 -40 131 -60 136 -55 2 2 38 144 80 315 l77 311 62 37 c123 74 263
161 285 177 20 14 33 14 154 -3 73 -10 187 -25 253 -33z m6301 24 c27 -11 37
-10 69 5 36 17 39 17 76 0 30 -13 45 -15 62 -7 21 10 23 8 23 -11 -1 -11 -11
-27 -23 -34 -19 -10 -28 -10 -52 3 -38 19 -54 19 -93 -1 -29 -15 -34 -15 -65
0 l-33 16 0 -120 c0 -113 1 -120 20 -120 16 0 20 -7 20 -35 0 -34 1 -35 40
-35 39 0 40 1 40 35 l0 35 50 0 50 0 0 -35 c0 -34 1 -35 40 -35 39 0 40 1 40
35 l0 35 50 0 50 0 0 -375 0 -375 210 0 210 0 0 -56 c0 -42 6 -64 25 -92 24
-35 25 -42 25 -199 l0 -163 -195 0 -195 0 0 175 0 175 -49 0 -50 0 -3 -37 c-3
-36 -5 -38 -40 -41 -36 -3 -37 -2 -40 35 -3 38 -3 38 -50 41 l-47 3 -3 -38
c-3 -37 -4 -38 -43 -38 -39 0 -40 1 -43 38 -3 37 -4 37 -47 37 -43 0 -44 0
-47 -37 -3 -37 -4 -38 -43 -38 -39 0 -40 1 -43 38 -3 37 -4 37 -48 37 -41 0
-44 -2 -44 -27 0 -42 -13 -55 -51 -51 -31 3 -34 6 -37 41 -3 37 -4 37 -48 37
-41 0 -44 -2 -44 -27 0 -42 -13 -55 -51 -51 -31 3 -34 6 -37 41 l-3 38 -47 -3
-47 -3 -3 -177 -2 -178 -180 0 -180 0 0 173 c0 169 1 174 25 207 19 26 25 46
25 87 l0 53 205 0 205 0 0 375 0 375 55 0 55 0 0 -35 c0 -33 2 -35 35 -35 33
0 35 2 35 35 l0 35 55 0 55 0 0 -35 c0 -34 1 -35 40 -35 39 0 40 1 40 35 0 24
5 35 15 35 13 0 15 23 15 146 0 162 -5 152 66 123z m-3181 -637 c94 -182 252
-406 389 -551 106 -111 303 -262 436 -332 l45 -24 -75 -6 c-41 -4 -145 -7
-231 -8 l-155 -1 -85 118 c-178 246 -246 373 -323 604 -46 137 -126 430 -126
458 0 8 18 -26 39 -76 21 -50 60 -132 86 -182z m2094 -84 c15 -9 28 -9 60 2
36 12 46 11 74 -2 24 -11 38 -13 51 -6 15 9 17 6 14 -19 -3 -25 -6 -28 -38
-25 -40 3 -85 3 -135 0 l-35 -3 0 -72 c0 -58 -3 -73 -15 -73 -12 0 -15 18 -15
105 0 108 3 116 39 93z m2135 -3 c16 -12 23 -12 52 2 29 14 39 15 73 3 22 -7
46 -10 54 -7 10 4 15 -2 15 -19 0 -30 -38 -42 -74 -24 -19 11 -31 11 -62 1
-21 -7 -47 -11 -57 -9 -18 3 -20 -3 -20 -70 0 -51 -4 -72 -12 -72 -10 0 -13
28 -13 105 0 110 5 120 44 90z m1463 -602 c4 -9 14 -24 22 -33 92 -96 94 -100
82 -138 -6 -21 -15 -56 -21 -79 -9 -36 -18 -47 -52 -64 -22 -11 -61 -27 -86
-34 -45 -14 -46 -14 -77 18 -17 18 -79 78 -137 134 -113 108 -115 114 -48 128
19 3 64 17 100 29 65 23 174 53 198 55 7 1 16 -7 19 -16z m-7992 -390 c14
-144 25 -277 25 -295 l0 -33 -103 -23 c-126 -27 -125 -27 -130 1 -4 18 -5 17
-6 -7 -1 -26 -3 -28 -36 -24 -42 5 -43 -1 -15 -74 11 -29 20 -54 20 -55 0 -2
-36 -21 -80 -43 -61 -31 -102 -43 -177 -55 -54 -8 -136 -21 -182 -30 -46 -8
-88 -12 -92 -9 -13 8 -183 135 -192 144 -5 4 5 41 23 83 31 74 31 75 83 90 29
9 95 26 147 37 52 12 112 26 133 31 l37 10 0 89 0 89 68 21 c37 12 72 23 77
26 7 2 9 -10 7 -34 -3 -27 2 -44 17 -62 21 -25 21 -25 36 -5 19 24 12 61 -16
91 l-20 21 53 31 c37 20 55 26 60 18 6 -8 8 -8 8 1 0 13 224 243 227 234 1 -3
14 -124 28 -268z m3273 45 c58 -53 127 -62 167 -22 13 14 15 13 15 -9 0 -32
-41 -68 -78 -69 -54 -2 -121 54 -164 136 l-15 29 -7 -28 c-4 -15 -30 -52 -58
-81 -66 -70 -129 -92 -213 -74 -69 14 -141 63 -181 122 l-31 45 -19 -34 c-21
-41 -80 -91 -144 -123 -66 -34 -158 -33 -233 2 -65 31 -121 73 -147 112 l-17
27 -28 -40 c-31 -45 -98 -92 -165 -116 -50 -18 -127 -14 -183 10 -48 20 -116
77 -147 124 -21 31 -29 37 -34 25 -3 -9 -6 -150 -6 -315 l0 -299 -42 5 c-24 3
-124 12 -223 21 -99 9 -183 19 -187 22 -6 6 -17 612 -11 612 1 0 24 -23 50
-51 63 -67 113 -92 184 -92 72 0 151 37 206 96 l39 42 30 -37 c38 -47 135
-105 192 -114 102 -15 212 21 286 93 l38 38 34 -32 c56 -52 154 -95 231 -100
97 -7 170 22 244 96 l55 56 34 -38 c68 -77 177 -116 269 -96 66 14 135 59 163
107 l22 40 17 -26 c9 -15 34 -44 57 -64z"/>
</g>
</svg>
